<?xml version="1.0" encoding="UTF-8"?>
<svg width="120" height="30" viewBox="0 0 120 30" xmlns="http://www.w3.org/2000/svg">
  <g fill="none" fill-rule="evenodd">
    <rect fill="#00B67A" width="120" height="30" rx="4"/>
    <path d="M18.5,17.5 L21.5,12 L24.5,17.5 L18.5,17.5 Z" fill="#FFFFFF"/>
    <polygon fill="#FFFFFF" points="21.5 7 25.5 17.5 29.5 17.5 21.5 2 13.5 17.5 17.5 17.5"/>
    <path fill="#FFFFFF" d="M34,11 L39,11 C39.5522847,11 40,11.4477153 40,12 L40,17 C40,17.5522847 39.5522847,18 39,18 L34,18 C33.4477153,18 33,17.5522847 33,17 L33,12 C33,11.4477153 33.4477153,11 34,11 Z M46,11 L51,11 C51.5522847,11 52,11.4477153 52,12 L52,17 C52,17.5522847 51.5522847,18 51,18 L46,18 C45.4477153,18 45,17.5522847 45,17 L45,12 C45,11.4477153 45.4477153,11 46,11 Z M58,11 L63,11 C63.5522847,11 64,11.4477153 64,12 L64,17 C64,17.5522847 63.5522847,18 63,18 L58,18 C57.4477153,18 57,17.5522847 57,17 L57,12 C57,11.4477153 57.4477153,11 58,11 Z M70,11 L75,11 C75.5522847,11 76,11.4477153 76,12 L76,17 C76,17.5522847 75.5522847,18 75,18 L70,18 C69.4477153,18 69,17.5522847 69,17 L69,12 C69,11.4477153 69.4477153,11 70,11 Z M82,11 L87,11 C87.5522847,11 88,11.4477153 88,12 L88,17 C88,17.5522847 87.5522847,18 87,18 L82,18 C81.4477153,18 81,17.5522847 81,17 L81,12 C81,11.4477153 81.4477153,11 82,11 Z M37,21 L85,21 C85.5522847,21 86,21.4477153 86,22 C86,22.5522847 85.5522847,23 85,23 L37,23 C36.4477153,23 36,22.5522847 36,22 C36,21.4477153 36.4477153,21 37,21 Z"/>
  </g>
</svg>
